<?xml version="1.0" encoding="UTF-8" standalone="no"?>
<svg id="svg21099" xmlns:rdf="http://www.w3.org/1999/02/22-rdf-syntax-ns#" xmlns="http://www.w3.org/2000/svg" height="38.219mm" viewBox="0 0 239.09089 135.42247" width="67.477mm" version="1.1" xmlns:cc="http://creativecommons.org/ns#" xmlns:dc="http://purl.org/dc/elements/1.1/">
 <defs id="defs21101">
  <clipPath id="clipPath6988-3-06-8-3" clipPathUnits="userSpaceOnUse">
   <ellipse id="path6990-4-1-8-2" rx="15" ry="30" transform="matrix(-.24424 0 0 .13561 83.914 138.76)" cy="360" cx="855" fill="#fff"/>
  </clipPath>
  <clipPath id="clipPath6988-5-0-1-7-5" clipPathUnits="userSpaceOnUse">
   <ellipse id="path6990-5-8-17-7-4" rx="15" ry="30" transform="matrix(-.24424 0 0 .13561 83.914 138.76)" cy="360" cx="855" fill="#fff"/>
  </clipPath>
  <clipPath id="clipPath2889-9-52" clipPathUnits="userSpaceOnUse">
   <path id="path2891-8-5" stroke="#000" stroke-width="2" fill="#fff" d="m229.17 402.54-9.17 19.82 10 100h45l24-10 2-85-16-30-55.834 5.1768z"/>
  </clipPath>
  <clipPath id="clipPath3416-9-5" clipPathUnits="userSpaceOnUse">
   <path id="path3418-9-7" stroke="#000" stroke-width="2" fill="#fff" d="m235.75 236.09c-11.75 26.058-26.635 68.066-10.156 92.281-0.69621 9.5601-2.2961 27.604-3.375 39.656-8.1613 6.872-17.661 16.83-23.094 29.281h10.906l-5.4688 10h10.906l-5.4375 15s16.369-20 38.188-20h21.812c21.818 0 38.188 20 38.188 20l-5.4688-15h10.906l-5.4375-10h10.906c-5.5759-12.78-15.418-22.927-23.719-29.812-1.1665-10.617-4.4688-41.032-4.4688-45.188 0-2.5-16.25-3.75-32.5-3.75-4.0193 0-8.0391 0.0971-11.812 0.25l4.37-16.43s-3.8682-26.652-15.25-66.281z"/>
  </clipPath>
 </defs>
 <g id="g11590-8-3-5-5" transform="matrix(-.5668 .126 .126 .5668 -18.365 2.046)">
  <g id="g11504-5-7-9-6" transform="matrix(.9791 -.20339 .20339 .9791 -54.061 -27.13)">
   <g id="g4286-1-69-3-8-15" transform="matrix(.21689 0 0 .21689 -421.86 31.813)">
    <g id="g759" fill-rule="evenodd">
     <path id="path4288-4-0-1-6-48" d="m1130 730c-20 0-100 60-100 60v100l40-40 60-120z" fill="#333"/>
     <path id="path4290-3-8-3-3-1" d="m1020 520 80-80-60-80-20-40-20-40h-110l10-40-20-200-100 200 40 80-20 40-60 70 80 90v40l-100 100 100-20v140l-80 160 130-40 150-40" fill="#4d4d4d"/>
     <path id="path4292-9-9-4-4-5" d="m970 300-30-60 100-200 20 200-40 80" fill="#4d4d4d"/>
     <path id="path4294-88-36-9-4-0" d="m840 520s-20 34.513-20 40v220l50 120 80 10 50-110v-220l-30-50-130-10z" fill="#ccc"/>
     <path id="path4296-0-0-6-3-54" d="m1e3 580-90 90 90-20v150l-80 160 150-70v-290l-50-80" fill="#4d4d4d"/>
    </g>
    <g id="g766" fill-rule="evenodd">
     <ellipse id="path4298-8-69-0-0-70" rx="12" ry="30" transform="matrix(.81649 0 0 1.0016 662.46 96.719)" cy="262.36" cx="230"/>
     <ellipse id="path4300-77-7-2-6-7" rx="12" ry="30" transform="matrix(.81649 0 0 1.0016 761.96 97.719)" cy="262.36" cx="230"/>
     <path id="path4302-8-8-1-1-2" d="m880 410 20 30 20-30"/>
    </g>
    <path id="path4304-3-9-9-1-2" d="m820 620v160" fill="none"/>
   </g>
   <path id="path4306-8-41-8-4-5" stroke="#000" stroke-width="1.4605" fill="none" d="m-176.78 190.14c-4.3377 0-13.013 7.7459-13.013 7.7459v18.28l13.013-26.026zm-36.842-97.599h-15.21l2.1689-8.6754-4.3377-43.377-21.689 43.377 8.6754 17.351-4.3377 8.6754-13.013 15.182 17.351 19.52v8.6754l-21.689 21.689 21.689-4.3377v30.364l-17.351 34.702 28.195-8.6754m21.689-130.13-6.5066-13.013 21.689-43.377 4.3377 43.377-8.6754 17.351 4.3377 8.6754 13.013 17.351-17.351 17.351 10.844 17.351v62.897l-32.533 15.182 17.351-34.702v-32.533l-19.52 4.3377 19.52-19.52-6.5066-10.844-28.195-2.1689s-4.3377 7.4854-4.3377 8.6754v47.715l10.844 26.026 16.266 2.1688m-5.4221-108.44h-8.6754l4.3377 6.5066 4.3377-6.5066zm-4.3377 6.5066v5.9595"/>
   <path id="path3667-3-5-8-6-2" d="m-235.34 134.67 8.2921 0.1544 9.0587-0.1544-8.8071-3.0282-8.5438 3.0282z" fill-rule="evenodd" stroke="#000" stroke-width="1.3057" fill="#500"/>
  </g>
 </g>
 <g id="g11605-9-3-8-9-3-9-6" stroke-width="1.0081" transform="matrix(.4808 -.12176 .12176 .4808 218.93 -7.814)">
  <g id="g4286-1-2-38-8-2-2-0-4-8" transform="matrix(.21689 0 0 .21689 -322.95 11.73)">
   <g id="g780" fill-rule="evenodd">
    <path id="path4288-4-4-1-9-91-9-8-1-32" d="m1130 730c-20 0-100 60-100 60v100l40-40 60-120z" fill="#999"/>
    <path id="path4290-3-2-03-3-3-3-5-8-87" d="m1020 520 80-80-60-80-20-40-20-40h-110l10-40-20-200-100 200 40 80-20 40-60 70 80 90v40l-100 100 100-20v140l-80 160 130-40 150-40" fill="#f4e3d7"/>
    <path id="path4292-9-5-3-4-5-8-8-6-6" d="m970 300-30-60 100-200 20 200-40 80" fill="#f4e3d7"/>
    <path id="path4294-88-86-8-4-9-6-7-9-07" d="m840 520s-20 34.513-20 40v220l50 120 80 10 50-110v-220l-30-50-130-10z" fill="#fff6d5"/>
    <path id="path4296-0-2-4-6-8-0-6-3-7" d="m1e3 580-90 90 90-20v150l-80 160 150-70v-290l-50-80" fill="#f4e3d7"/>
   </g>
   <g id="g787" fill-rule="evenodd">
    <ellipse id="path4298-8-6-8-0-6-2-8-7" rx="12" transform="matrix(.81649 0 0 1.0016 662.46 96.719)" ry="30" cy="262.36" cx="230"/>
    <ellipse id="path4300-77-53-01-6-6-4-3-4" rx="12" transform="matrix(.81649 0 0 1.0016 761.96 97.719)" ry="30" cy="262.36" cx="230"/>
    <path id="path4302-8-9-54-6-40-8-4-2-1" d="m880 410 20 30 20-30"/>
   </g>
   <path id="path4304-3-2-1-1-7-8-9-7-50" d="m820 620v160" fill="none"/>
  </g>
  <path id="path4306-8-4-37-8-6-6-4-3-17" stroke="#000" stroke-width="1.0081" fill="none" d="m-77.868 170.06c-4.3377 0-13.013 7.7459-13.013 7.7459v18.28l13.013-26.026zm-36.842-97.599h-15.21l2.1689-8.6754-4.3377-43.377-21.689 43.377 8.6754 17.351-4.3377 8.6754-13.013 15.182 17.351 19.52v8.6754l-21.689 21.689 21.689-4.3377v30.364l-17.351 34.702 28.195-8.6754m21.689-130.13-6.5066-13.013 21.689-43.377 4.3377 43.377-8.6754 17.351 4.3377 8.6754 13.013 17.351-17.351 17.351 10.844 17.351v62.897l-32.533 15.182 17.351-34.702v-32.533l-19.52 4.3377 19.52-19.52-6.5066-10.844-28.195-2.1689s-4.3377 7.4854-4.3377 8.6754v47.715l10.844 26.026 16.266 2.1688m-5.4221-108.44h-8.6754l4.3377 6.5066 4.3377-6.5066zm-4.3377 6.5066v5.9595"/>
  <path id="path11588-35-4-3-7-8-4-9" stroke="#000" stroke-width="1.0081" fill="none" d="m-135.06 114.87 7.3058-1.7503 8.2506 1.7503"/>
 </g>
 <g id="g11605-9-3-8-9-3-99-4" stroke-width="1.0081" transform="matrix(-.4808 -.12176 -.12176 .4808 67.32 -2.2259)">
  <g id="g4286-1-2-38-8-2-2-0-5-9" transform="matrix(.21689 0 0 .21689 -322.95 11.73)">
   <g id="g814" fill-rule="evenodd">
    <path id="path4288-4-4-1-9-91-9-8-6-7" d="m1130 730c-20 0-100 60-100 60v100l40-40 60-120z" fill="#999"/>
    <path id="path4290-3-2-03-3-3-3-5-5-2" d="m1020 520 80-80-60-80-20-40-20-40h-110l10-40-20-200-100 200 40 80-20 40-60 70 80 90v40l-100 100 100-20v140l-80 160 130-40 150-40" fill="#f4e3d7"/>
    <path id="path4292-9-5-3-4-5-8-8-98-9" d="m970 300-30-60 100-200 20 200-40 80" fill="#f4e3d7"/>
    <path id="path4294-88-86-8-4-9-6-7-15-55" d="m840 520s-20 34.513-20 40v220l50 120 80 10 50-110v-220l-30-50-130-10z" fill="#fff6d5"/>
    <path id="path4296-0-2-4-6-8-0-6-5-4" d="m1e3 580-90 90 90-20v150l-80 160 150-70v-290l-50-80" fill="#f4e3d7"/>
   </g>
   <g id="g821" fill-rule="evenodd">
    <ellipse id="path4298-8-6-8-0-6-2-1-8" rx="12" transform="matrix(.81649 0 0 1.0016 662.46 96.719)" ry="30" cy="262.36" cx="230"/>
    <ellipse id="path4300-77-53-01-6-6-4-24-2" rx="12" transform="matrix(.81649 0 0 1.0016 761.96 97.719)" ry="30" cy="262.36" cx="230"/>
    <path id="path4302-8-9-54-6-40-8-4-6-9" d="m880 410 20 30 20-30"/>
   </g>
   <path id="path4304-3-2-1-1-7-8-9-5-7" d="m820 620v160" fill="none"/>
  </g>
  <path id="path4306-8-4-37-8-6-6-4-5-2" stroke="#000" stroke-width="1.0081" fill="none" d="m-77.868 170.06c-4.3377 0-13.013 7.7459-13.013 7.7459v18.28l13.013-26.026zm-36.842-97.599h-15.21l2.1689-8.6754-4.3377-43.377-21.689 43.377 8.6754 17.351-4.3377 8.6754-13.013 15.182 17.351 19.52v8.6754l-21.689 21.689 21.689-4.3377v30.364l-17.351 34.702 28.195-8.6754m21.689-130.13-6.5066-13.013 21.689-43.377 4.3377 43.377-8.6754 17.351 4.3377 8.6754 13.013 17.351-17.351 17.351 10.844 17.351v62.897l-32.533 15.182 17.351-34.702v-32.533l-19.52 4.3377 19.52-19.52-6.5066-10.844-28.195-2.1689s-4.3377 7.4854-4.3377 8.6754v47.715l10.844 26.026 16.266 2.1688m-5.4221-108.44h-8.6754l4.3377 6.5066 4.3377-6.5066zm-4.3377 6.5066v5.9595"/>
  <path id="path11588-35-4-3-7-8-05-0" stroke="#000" stroke-width="1.0081" fill="none" d="m-135.06 114.87 7.3058-1.7503 8.2506 1.7503"/>
 </g>
 <g id="g10113-8-5" stroke-width="1.8773" transform="matrix(-.43983 0 0 .43983 162.93 -93.854)">
  <path id="path10009-4-9-1" d="m185.89 405.4-36.14 14.99 40.25 6.97" stroke="#000" fill="#ffe6b7"/>
  <g id="g6736-3-1" transform="translate(-19.55,223.47)">
   <g id="g832" fill-rule="evenodd">
    <path id="path3204-1-7-6-7" d="m282.88 227.05c-4.8848 0-21.982 12.212-21.982 12.212l-1.2212 23.203 9.7696-7.3272 13.433-28.088z" fill="#1a1a1a"/>
    <path id="path3314-7-9-8-0" d="m252.35 174.54 21.982-19.539-17.097-19.539-4.8848-9.7696-4.8848-4.8848h-29.309l4.8848-14.654-4.8848-48.848-24.424 48.848 9.7696 19.539-4.8848 9.7696-17.097 17.097 21.982 21.982v63.503l-19.539 39.078 29.309-4.8848 43.963-34.194" fill="#ffe6b7"/>
    <path id="path3316-4-5-9-36" d="m242.58 125.69-9.7696-19.539 24.424-48.848 4.8848 48.848-9.7696 19.539" fill="#1a1a1a"/>
    <path id="path3318-0-5-3-71" d="m208.93 174.53s-4.8249 8.3778-4.8249 9.7097v53.403l9.1646 27.262 24.424 2.4424 9.7696-29.309v-53.733l-8.5484-8.5484-29.985-1.2268z" fill="#f9f9f9"/>
    <path id="path3320-9-4-4-0" d="m247.47 184.3v53.733l-19.539 42.742 34.194-9.7696 7.3272-10.991v-67.166l-17.097-18.318" fill="#ffe6b7"/>
   </g>
   <g id="g3307-0-1-6" stroke-linejoin="round" transform="matrix(.24424 0 0 .24424 3.2246 48.018)" stroke="#000" stroke-width="7.6864" fill="none">
    <path id="path3295-3-6-0" d="m855 350s8-20-2-30"/>
    <path id="path3301-4-3-48" d="m855 350s0-17-10-27"/>
    <path id="path3303-1-8-3" d="m840 328s10 7 15 22"/>
    <path id="path3305-2-3-2" d="m837 336s8-1 18 14"/>
   </g>
   <path id="path3341-2-7-6" fill-rule="evenodd" fill="#f5f5f5" d="m223.04 159.88v-4.8848 4.8848h-9.7696l9.7696 9.7696 9.7696-9.7696h-9.7696z"/>
   <g id="g845" stroke="#000">
    <path id="path3339-4-9-6-6" stroke-width="1.8773" fill-rule="evenodd" fill="#faa" d="m218.16 148.89 4.8848 6.106 4.8848-6.106h-9.7696z"/>
    <g id="g3313-8-7-9" stroke-linejoin="round" stroke-width="7.6864" fill="none" transform="matrix(-.24424 0 0 .24424 443.35 48.018)">
     <path id="path3315-2-8-83" d="m855 350s8-20-2-30"/>
     <path id="path3317-2-2-7" d="m855 350s0-17-10-27"/>
     <path id="path3319-7-79-45" d="m840 328s10 7 15 22"/>
     <path id="path3321-8-8-1" d="m837 336s8-1 18 14"/>
    </g>
    <g id="g853" stroke-width="1.8773">
     <path id="path5430-5-1-2" d="m242.58 125.69-9.7696-19.539 24.424-48.848 4.8848 48.848-9.7696 19.539 4.8848 9.7696 17.097 19.539-21.982 19.539 17.097 18.318v67.166l-7.3272 10.991-34.194 9.7696 19.539-42.742v-53.733l-8.5484-8.5484-29.985-1.2268s-5.4355 8.6394-5.4355 9.9714v53.665l9.7752 26.738 20.983 2.0324 13.211-28.899m-7.3914-117.36-21.917 0.12844 4.8848-14.654-4.8848-48.848-24.424 48.848 9.7696 19.539-4.8848 9.7696-17.097 17.097 21.982 21.982v63.503l-19.539 39.078 29.309-4.8848 8.4599-6.5078" fill="none"/>
     <path id="path5428-8-9-6" d="m282.88 227.05c-4.8848 0-13.433 6.044-13.433 6.044v22.044l13.433-28.088z" fill="#ffe6b7"/>
     <path id="path5440-3-5-0" fill-rule="evenodd" fill="#ff8080" d="m223.04 159.88v-4.8848 4.8848h-9.7696l9.7696 9.7696 9.7696-9.7696h-9.7696z"/>
    </g>
   </g>
   <g id="g3348-9-4-0" stroke-linejoin="round" stroke="#000" fill="#f60" transform="matrix(.29336 .018302 -.017884 .30021 -34.258 12.619)">
    <path id="path3282-4-7-72" stroke-width="6.3143" fill-rule="evenodd" d="m849.15 287.47s-8.8992 21.574-3.8116 27.648c5.0876 6.0749 101.35-34.754 109.52-31.793 8.1644 2.9609 16.793 29.915 6.3104 30.451-3.2858 0.16821-40.853-8.7822-57.752-15.186-37.015-14.026-65.164-29.991-54.264-11.121z"/>
    <ellipse id="path3284-4-1-0" rx="32.673" transform="matrix(.69886 -.035776 .059627 .41931 501.02 220.39)" ry="28.673" cy="234.06" cx="553.99" stroke-width="11.622"/>
   </g>
   <path id="path3352-6-2-2" fill-rule="evenodd" fill="#ffe6b7" d="m242.75 125.39-9.7696-19.539 24.424-48.848 4.8848 48.848-15.642 27.829"/>
   <path id="path3356-9-4-3" stroke="#000" stroke-width="1.8773" fill="none" d="m252.48 125.95 9.8041-20.1-4.8848-48.848-24.59 49.147 9.7696 19.539"/>
   <g id="g863">
    <ellipse id="path16101-8-7-5" ry="30" rx="15" stroke="#000" transform="matrix(-.24424 0 0 .24424 420.59 47.925)" cy="360" cx="855" stroke-width="7.6864" fill="#fff"/>
    <ellipse id="path16101-1-5-4-8" ry="30" rx="15" stroke="#000" transform="matrix(-.24424 0 0 .24424 442.57 47.925)" cy="360" cx="855" stroke-width="7.6864" fill="#fff"/>
    <ellipse id="path6932-6-3-8" clip-path="url(#clipPath6988-3-06-8-3)" rx="2.377" ry="2.2101" transform="matrix(1,0,0,1.8011,336.68,-202)" cy="187.79" cx="-127.38"/>
    <ellipse id="path6932-1-6-6-4" clip-path="url(#clipPath6988-5-0-1-7-5)" rx="2.377" ry="2.2101" transform="matrix(1,0,0,1.8011,358.66,-201.67)" cy="187.79" cx="-127.38"/>
   </g>
  </g>
  <path id="path10009-3-1" d="m230.62 406.5-33.002 27.963 34.111-8.0051" stroke="#000" fill="#ffe6b7"/>
 </g>
 <g id="g39511-6-4" transform="matrix(.47571 0 0 .47571 10.235 27.446)">
  <g id="g11675-3-0-6-30" stroke-width="1.2722" transform="matrix(1.179,0,0,1.1473,436.69,285.66)">
   <g id="g4286-1-6-1-8-9-5" transform="matrix(.21689 0 0 .21689 -534.89 -260.73)">
    <g id="g873" fill-rule="evenodd">
     <path id="path4288-4-8-9-3-8-4" d="m1130 730c-20 0-100 60-100 60v100l40-40 60-120z" fill="#d4aa00"/>
     <path id="path4290-3-3-8-9-1-2" d="m1020 520 80-80-60-80-20-40-20-40h-110l10-40-20-200-100 200 40 80-20 40-60 70 80 90v40l-137.33-16.504-2.4121 27.562 139.74 68.94v140l-80 160 130-40 150-40" fill="#ffd42a"/>
     <path id="path4292-9-4-6-3-0-6" d="m970 300-30-60 100-200 20 200-40 80" fill="#fc0"/>
     <path id="path4294-88-8-5-9-0-9" d="m840 520s-20 34.513-20 40v220l50 120 80 10 50-110v-220l-30-50-130-10z" fill="#ffe680"/>
     <path id="path4296-0-49-0-6-7-9" d="m1e3 580-90 90 90-20v150l-80 160 150-70v-290l-50-80" fill="#ffd42a"/>
    </g>
    <g id="g880" fill-rule="evenodd">
     <ellipse id="path4298-8-92-2-7-4-1" rx="12" ry="30" transform="matrix(.81649 0 0 1.0016 662.46 96.719)" cy="262.36" cx="230"/>
     <ellipse id="path4300-77-5-8-9-8-0" rx="12" ry="30" transform="matrix(.81649 0 0 1.0016 761.96 97.719)" cy="262.36" cx="230"/>
     <path id="path4302-8-53-6-9-6-9" d="m880 410 20 30 20-30"/>
    </g>
    <path id="path4304-3-3-0-7-9-9" d="m820 620v160" fill="none"/>
   </g>
   <path id="path4306-8-3-2-6-6-95" stroke="#000" stroke-width="1.2897" fill="none" d="m-289.8-102.4c-4.3377 0-13.013 7.7459-13.013 7.7459v18.28zm-36.842-97.599h-15.21l2.1689-8.6754-4.3377-43.377-21.689 43.377 8.6754 17.351-4.3377 8.6754-13.013 15.182 17.351 19.52v8.6754l-29.785-3.5795-0.48549 5.5475 30.27 15.383v30.364l-17.351 34.702 28.195-8.6754m21.689-130.13-6.5066-13.013 21.689-43.377 4.3377 43.377-8.6754 17.351 4.3377 8.6754 13.013 17.351-17.351 17.351 10.844 17.351v62.897l-32.533 15.182 17.351-34.702v-32.533l-19.52 4.3377 19.52-19.52-6.5066-10.844-28.195-2.1689s-4.3377 7.4854-4.3377 8.6754v47.715l10.844 26.026 16.266 2.1689m-5.4221-108.44h-8.6754l4.3377 6.5066zm-4.3377 6.5066v5.9595"/>
   <path id="path3667-3-7-4-9-7-8" d="m-348.36-159.87 8.2921 2.1544 9.0588-2.1544-8.8071-1.0282-8.5438 1.0282z" fill-rule="evenodd" stroke="#000" stroke-width="1.2897" fill="#500"/>
  </g>
  <g id="g41497-8-9-1-57" transform="matrix(.64631 .053075 -.053075 .64631 -669.38 -10.588)">
   <path id="path3345-12-5-6-9-6-6-3-11" d="m1043.6 167.36c0.1624 5.4729-25.927 6.2467-26.09 0.77378-0.1623-5.473-1.3764-50.855-1.5387-56.328 5.0431-2.699 8.1579 0.40888 25.637-0.718 0.1623 5.4729 1.8291 50.799 1.9914 56.272z" fill-opacity=".81481" fill-rule="evenodd" stroke="#000" stroke-width="2" fill="#b2d295"/>
   <ellipse id="path3350-9-1-6-2-7-9-1-1" rx="63.91" ry="14.203" transform="matrix(-.19127 .0019542 -.32237 .15575 1219.9 40.636)" cy="452.36" cx="240" fill="#004200"/>
   <path id="path2567-8-9-5-2-7-8-6-4" stroke-linejoin="round" d="m1043.6 167.36c0.1624 5.4729-25.927 6.2467-26.09 0.77378-0.1623-5.473-1.4609-49.256-1.6232-54.729-0.1623-5.4729 4.9667-10.772 4.8044-16.245-0.1624-5.4729 0.989-33.461 0.989-33.461l12.801 0.17469c0.3246 10.946 0.5092 26.858 0.6715 32.331 0.1623 5.4729 6.6612 10.953 6.8235 16.426 0.1624 5.4729 1.4609 49.256 1.6232 54.729z" fill-rule="evenodd" fill-opacity=".81569" stroke="#000" stroke-width="2" fill="#008000"/>
   <ellipse id="path2569-3-6-7-0-2-2-1-9" stroke-linejoin="round" cx="240" cy="162.36" rx="22.4" transform="matrix(-.30544 .019927 -.0019343 .39598 1101.8 -5.6836)" ry="5.3258" stroke="#000" stroke-linecap="round" stroke-width="5.7517" fill="#004200"/>
  </g>
  <path id="path82356-4-4" stroke="#000" stroke-width="1.5" fill="#ffd42a" d="m-20.004 119.42-0.70711 9.8995 7.4246-2.4749z"/>
 </g>
 <g id="g118026-0-5" transform="matrix(.39558 -.10156 .10156 .39558 86.835 -259.58)">
  <g id="g3361-1-7-0" stroke-width="6.1667" transform="matrix(.24324 0 0 .24324 -397.95 683.38)">
   <path id="path2913-1-7-9-2" stroke="#000" stroke-width="5.3368" fill="#c87615" d="m830 550-83.72 32.33-7.78 42.73 91.5 14.94"/>
   <g id="g5866-4-7-1">
    <g id="g2424-0-7-3" stroke-width="6.1667">
     <g id="g23094-9-8-9">
      <g id="g900" fill-rule="evenodd" fill="#c87615">
       <path id="path3204-4-0-7" d="m1130 730c-20 0-100 60-100 60v100l40-40 60-120z"/>
       <path id="path3314-8-0-1" d="m1020 520 80-80-60-80-20-40-20-40h-110l10-40-20-200-100 200 40 80-20 40-60 70 80 90v260l-80 160 130-40 150-40"/>
       <path id="path3316-8-9-16" d="m970 300-30-60 100-200 20 200-40 80"/>
      </g>
      <g id="g905" fill-rule="evenodd">
       <path id="path3318-2-5-4" d="m840 520s-20 34.513-20 40v220l50 120 80 10 50-110v-220l-30-50-130-10z" fill="#d38d5f"/>
       <path id="path3320-4-3-5" d="m1e3 580v220l-80 160 150-70v-290l-50-80" fill="#c87615"/>
       <path id="path3339-1-2-8" d="m880 410 20 30 20-30"/>
      </g>
      <path id="path3195-7-3-86" d="m820 620v160" fill="none"/>
     </g>
     <path id="path5408-1-1-3" stroke="#000" stroke-width="5.3368" fill="none" d="m1130 730c-20 0-60 35.714-60 35.714v84.29l60-120zm-169.87-450h-70.13l10-40-20-200-100 200 40 80-20 40-60 70 80 90v260l-80 160 130-40m100-600-30-60 100-200 20 200-40 80 20 40 60 80-80 80 50 80v290l-150 70 80-160v-220l-30-50-130-10s-20 34.513-20 40v220l50 120 75 10m-25-500h-40l20 30 20-30zm-20 30v20l-40 20 40-20 40 20"/>
    </g>
    <path id="path3168-7-1-5-9" d="m900 432v28l-40 20 40 20 40-20-40-20" fill-rule="evenodd" stroke="#000" stroke-width="5.3368" fill="#500"/>
   </g>
   <path id="path2913-5-3-9" stroke="#000" stroke-width="5.3368" fill="#c87615" d="m1020 560-110 110 110-20"/>
  </g>
  <g id="g4001-4-8-2-11" stroke-width="2.0004" transform="matrix(.70481 .25596 -.25596 .70481 -366.03 432.27)">
   <g id="g3996-46-3-0-2" stroke-linejoin="bevel" stroke="#000" stroke-width="1.7312">
    <ellipse id="path3990-0-7-8-2" rx="11.786" ry="12.5" cy="402.01" cx="374.64" fill="#333"/>
    <path id="path3988-6-1-7-73" d="m367.14 412.36 3.9286 38.571c3.5714 3.2143 9.6429 0.35714 9.6429 0.35714l3.5714-40.714c-7.1429 4.6428-17.143 1.7857-17.143 1.7857z" fill="#1a1a1a"/>
    <path id="path3994-6-0-5-0" d="m362.5 400.58s13.214 5.7143 22.857-0.35715" fill="none"/>
   </g>
  </g>
  <g id="g919" stroke-linejoin="bevel" stroke="#000" fill="#c87615">
   <path id="path118004-1-32" stroke-width="1.2981" d="m-217 822 15 19-18-4z"/>
   <path id="path118006-1-30" stroke-width="2.5963" d="m-197 769.5 12 1.5"/>
   <path id="path118006-4-7-49" stroke-width="2.5963" d="m-160.5 769.25-12 1.5"/>
  </g>
 </g>
 <g id="g4276-7-2" stroke-width="1.7915" transform="matrix(.26056 .0020679 -.0020679 .26056 153.23 -31.094)">
  <g id="g925" stroke-width="1.7915">
   <path id="path3435-5-0" d="m230 492.36-30 50 40-10 10-20-20-20z" stroke="#000" fill="#f2f2f2"/>
   <path id="path2913-5-3-8-8-3-9" d="m222 417.21-42-14.848 42 44" stroke="#000" fill="#f2f2f2"/>
   <g id="g2867-6-9" clip-path="url(#clipPath2889-9-52)">
    <path id="path2865-7-4" d="m235 397.36-20 25 15 100s75 5 75 0v-95l-20-30h-50z" fill="#fff"/>
    <path id="path2863-3-7" d="m230 397.36-5 25 5 105-15-105 15-25z" fill="#f2f2f2"/>
    <path id="path4261-7-8" d="m255 397.36s6.669 7.5262 15 20c10 15 5 70 5 70l-15 45h40l5-105-20-30h-30z" fill="#f2f2f2"/>
   </g>
   <path id="path3433-7-2" d="m229.17 402.54-9.17 19.82 10 100h45l24-10 2-85-16-30-55.834 5.1768z" stroke="#000" fill="none"/>
   <g id="g3396-2-1" clip-path="url(#clipPath3416-9-5)">
    <path id="path3394-4-1" d="m238 231.86 20 66.5-3 16s17.5-4 21.5-1.5 25.5 18.5 25.5 18.5-2 31 1 35 28 30.5 28 30.5-17 36-19.5 35.5-45.5-23-45.5-23l-32 3.5s-21.5 21.5-23.5 21-14.5-11-14.5-11l-8-34s29-24 29-27.5 1.5-30.5 1.5-30.5l-9.5-37s10-64.5 12.5-64 16.5 1 16.5 2z" fill="#fff"/>
    <path id="path3344-8-9" d="m235.5 233.86s10 5-1 20c-4.5037 6.1414-16.423 58.127-8.9062 74.513-16.326 12.767-6.751 15.901-8.0938 19.987-3.1896 9.7069 33.929 72.728-6.5 99-8.0774 5.2488-3.8104-147.29-2-153.5 3.5-12 10.5-53 26.5-60z" fill="#f9f9f9"/>
    <path id="path3346-5-8" d="m202.5 384.36 18 6-3 9 8 2v19s-17.5 11-20 7-12-34.5-12-34.5l9-8.5z" fill="#e6e6e6"/>
    <path id="path3370-6-4" d="m293.5 334.36s0.5-0.5-6 5-21.5 82.562 5 79.062c20.378-2.6914 13.5-76.562 13.5-76.562l-12.5-7.5z" fill="#f9f9f9"/>
    <path id="path3346-9-0-6" d="m315.5 382.42-18 6 3 9-8 2v19s17.5 11 20 7 12-34.5 12-34.5l-9-8.5z" fill="#e6e6e6"/>
   </g>
  </g>
  <g id="g940">
   <ellipse id="path3335-5-89-7-8-7" fill-rule="evenodd" rx="12" ry="30" transform="matrix(.26447 0 0 .32443 172.34 257.24)" cy="262.36" cx="230"/>
   <ellipse id="path3337-5-2-4-1-7" fill-rule="evenodd" rx="12" ry="33.046" transform="matrix(.26447 0 0 .33287 204.17 254.03)" cy="262.36" cx="230"/>
   <path id="path3336-6-55" stroke="#000" stroke-width="1.7915" d="m240 357.36h10l-5 10-5-10z"/>
  </g>
  <g id="g945" stroke-width="1.7915">
   <path id="path3338-5-5" d="m245 367.36v18l-7 7 7 5 7-5-7-7v-18z" stroke="#000" fill="#500"/>
   <path id="path3277-8-07" d="m260 402.36c35 0 48.219 19.95 48.219 19.95l-5.4688-15h10.906l-5.4375-10h10.906c-5.5759-12.78-15.418-22.927-23.719-29.812-1.1665-10.617-4.4688-41.032-4.4688-45.188 0-2.5-16.25-3.75-32.5-3.75-4.0193 0-8.0391 0.0971-11.812 0.25l4.37-16.43s-3.8682-26.652-15.25-66.281c-11.75 26.058-26.635 68.066-10.156 92.281-0.69621 9.5601-2.2961 27.604-3.375 39.656-8.1613 6.872-17.661 16.83-23.094 29.281h10.906l-5.4688 10h10.906l-5.4375 15s19.615-17.122 24.969-18.536" stroke="#000" fill="none"/>
   <g id="g3429-4-62">
    <path id="path3308-7-73" stroke="#000" stroke-width="1.7915" fill="#fff" d="m275 327.36c-2.3239-29.289 31.718-58.29 55-75-10 40-20 65-20 65l-20 20"/>
    <path id="path3342-4-8" d="m280 322.36s15-35 40-55c-10 25-5 45-30 55" fill="#fff6d5"/>
   </g>
  </g>
  <g id="g952" stroke="#000" stroke-width="1.7915">
   <path id="path2910-4-5" d="m294.04 503.65 17.96-26.29-25 10 7.0351 16.285z" fill="#f2f2f2"/>
   <g id="g955">
    <path id="path3437-3-3" d="m280 492.36-30 50 40-10 10-20v-40" fill="#f2f2f2"/>
    <path id="path4259-2-1" d="m189 409.36v-25l5 20v5h-5z" fill="#f9f9f9"/>
    <path id="path4257-7-6" d="m184 399.36-5 5 5 5h10v-5l-5-5h-5z" fill="#f9f9f9"/>
    <path id="path4274-6-28" d="m242.18 403.24h7.7782l-1.0607 20.153 6.0104 49.851-8.4853 10.253-10.253-10.607 2.1213-50.205 3.8891-19.445z" fill="#a00"/>
   </g>
   <path id="path2913-5-3-8-1-3" d="m280 413.21-35 39.152 35-10" fill="#f2f2f2"/>
  </g>
 </g>
</svg>
