<?xml version="1.0" encoding="UTF-8" standalone="no"?>
<svg id="svg2" xmlns:rdf="http://www.w3.org/1999/02/22-rdf-syntax-ns#" xmlns="http://www.w3.org/2000/svg" viewBox="0 0 645 585" version="1.0" xmlns:cc="http://creativecommons.org/ns#" xmlns:dc="http://purl.org/dc/elements/1.1/">
 <g id="layer1">
  <path id="path2417" fill="#8c42ad" d="m297.3 550.87c-13.78-15.44-48.17-45.53-76.44-66.88-83.74-63.24-95.14-72.39-129.14-103.7-62.685-57.72-89.306-115.71-89.215-194.34 0.0444-38.38 2.6606-53.17 13.41-75.8 18.236-38.382 45.1-66.905 79.445-84.351 24.33-12.355 36.32-17.845 76.94-18.069 42.5-0.2352 51.44 4.719 76.44 18.451 30.42 16.715 61.74 52.436 68.21 77.809l4 15.67 9.86-21.58c55.72-121.97 233.6-120.15 295.5 3.03 19.64 39.08 21.8 122.51 4.38 169.51-22.71 61.31-65.38 108.05-164 179.68-64.68 46.97-137.89 118.05-142.98 128.03-5.92 11.59-0.29 1.81-26.41-27.46z"/>
 </g>
</svg>
