<?xml version="1.0" encoding="UTF-8" standalone="no"?>
<svg id="svg6106" xmlns:rdf="http://www.w3.org/1999/02/22-rdf-syntax-ns#" xmlns="http://www.w3.org/2000/svg" height="64.572mm" viewBox="0 0 143.30889 228.79996" width="40.445mm" version="1.1" xmlns:cc="http://creativecommons.org/ns#" xmlns:dc="http://purl.org/dc/elements/1.1/">
 <g id="g72663-6-9-4-9-8-6-3-0-0-6-6-1-6-3-5-2-7" stroke-width="1.3883" transform="matrix(.97578 -.96754 .96754 .97578 -790.38 -721.14)">
  <g id="g6053" transform="matrix(.94916 -.3148 .3148 .94916 -274.21 56.437)">
   <path id="path5895-2-0-3-6-1-7-8-1-3-7-1-4-4-8-5-0-4-8-76-2-2-6-2-1-1-1-2-4-1-8-0-9" fill="#ccc" d="m43.111 880.84s13.716 9.4382 18.762 13.055c4.9779 3.5681 0.62828 5.4593 0.62828 5.4593s-0.51981 4.4698-5.1896 2.9845c-4.7591-1.5137-32.032-10.199-32.032-10.199"/>
   <g id="g6049">
    <path id="path5881-2-2-3-2-8-9-2-4-7-0-20-0-3-7-7-4-5-45-1-1-4-21-3-4-3-5-0-4-6-3-8" fill="#1a1a1a" d="m62.726 899.4c2.0081-3.0143 3.742-3.5616-4.0678-8.0245-3.5662-2.3756-6.484-4.3344-6.484-4.3529s-0.3319 0.30095-0.73756 0.70987l-0.73756 0.74349v1.2191 1.2191l-1.2208 1.22-1.2208 1.22v1.2216 1.2216l-1.2223 1.2204-1.2223 1.2204 0.0142 0.32896 0.0142 0.32895s5.1029 1.3205 7.2327 2.0664c10.66 3.7333 7.6652 1.4197 9.6519-1.5624z"/>
    <path id="path5895-2-0-3-6-1-2-3-4-7-3-9-5-8-9-2-8-1-86-1-4-9-5-5-2-8-0-70-8-1-5-6" stroke-linejoin="round" d="m43.276 880.98s13.716 9.4382 18.762 13.055c4.9779 3.5681 0.62828 5.4593 0.62828 5.4593s-0.51981 4.4698-5.1896 2.9845c-4.7591-1.5137-33.911-10.876-33.911-10.876" stroke="#000" stroke-linecap="round" stroke-width="1.3883" fill="none"/>
   </g>
  </g>
 </g>
 <g id="g5853-0-2-8-1-0-5-8-9-2-8-2-0-0-8-8-9-54-1-9-3-4-4-0-4-6-4" stroke-width="1.3968" transform="matrix(-1.3658 0 0 1.3658 274.08 -756.67)">
  <g id="g5857-4-8-0-5-4-7-4-8-0-1-2-8-2-7-7-6-3-3-7-4-8-0-5-5-7-1" stroke-width="1.3968">
   <g id="g5859-8-2-5-9-8-1-2-7-9-6-7-8-9-9-2-9-4-5-9-6-3-5-9-8-6-0" stroke-width="5.6898" transform="matrix(-.24549 0 0 .24549 238.86 480.47)">
    <g id="g16" fill-rule="evenodd">
     <path id="path5861-8-6-4-8-8-1-7-0-4-8-7-1-3-3-2-3-1-7-5-0-5-3-3-6-7-2" fill="#1a1a1a" d="m170 762.36c20 0 100 60 100 60v100l-40-40-60-120z"/>
     <path id="path5863-2-2-7-4-2-5-7-1-7-3-9-3-8-9-8-5-2-1-4-6-1-1-2-2-7-8" fill="#ccc" d="m280.14 552.29-80-80 60-80 20-40 60-40h80l50 20 30 60 60 70-90.277 90.405 15.873 43.779-5.596 85.816v130l80 140-31.665 15.765-98.335-35.765-74.006 9.2507"/>
     <path id="path5865-4-7-2-0-4-2-9-4-8-1-5-6-5-1-2-7-2-4-3-6-2-0-8-6-1-9" fill="#ececec" d="m456.38 556.46s16.664 35.347 16.664 40.834c0 61.366 0.41694 215.83 0.41694 215.83l-43.329 119.17-80 10-50-110v-220l30-50"/>
     <path id="path5867-5-5-1-7-5-7-3-8-3-4-5-7-1-8-8-6-98-7-1-1-0-6-7-5-9-2" fill="#ccc" d="m300.14 612.29v70 150l80 130-32.885 15.32-97.115-35.32-20-20v-290l50-80"/>
    </g>
    <path id="path5869-5-7-4-6-5-6-1-1-5-8-4-8-5-2-9-6-2-6-2-8-1-7-4-3-1-0" fill="none" d="m480 652.36v160"/>
    <path id="path5871-1-8-9-3-1-1-9-9-1-4-0-9-6-8-0-5-27-8-3-4-6-5-8-9-6-7" d="m330 332.36-30 50-110 110h-20v-20l80-140 100-30 30 10" fill-rule="evenodd" fill="#ccc"/>
    <path id="path5873-7-2-9-6-7-4-8-3-0-2-9-3-5-6-0-7-8-8-2-3-9-4-0-1-2-2-7" d="m420 312.36 30-10 60 30 70 140v20h-20l-20-10 20-20-60-70-40-50" fill-rule="evenodd" fill="#ccc"/>
    <g id="g25" fill="#1a1a1a">
     <path id="path5875-1-7-0-1-1-2-6-5-04-0-2-4-5-8-1-8-2-58-3-4-6-0-0-4-4-7-0" d="m580 482.36v-10l-17.5-31.67-12.5-28.33-9.857 1.2248c-7.1643 0.65413-9.1727 1.4675-9.1727 3.7147 0 0.87512-6.9804 1.3846-7.8716 2.0089-1.5238 1.0673 4.5429 5.2873 20.962 24.456 9.6036 11.212 15.937 18.306 15.939 18.596 0.002 0.28958-3.763 4.2843-8.3494 9.393s-8.638 9.3354-8.638 9.7178c0 0.38234 4.9906 5.1035 9.2329 7.012 7.1687 3.2248 10.094 3.8889 16.875 3.8772h10.88v-10z"/>
     <path id="path5877-1-8-3-5-1-3-5-9-1-0-1-5-8-8-1-5-3-0-1-3-6-45-3-6-2-3" d="m230 452.36c35.881-35.961 51.009-47.356 39.802-39.835-4.7953 3.218-25.696 10.713-36.535 10.723-7.9468 0.007-8.9708-0.85229-5.9948-5.0317 1.1202-1.5732 1.547-2.8966 1.0837-3.3599-0.42044-0.42045-3.127-1.0114-6.0145-1.3132-2.9971-0.31326-5.4228-0.99889-5.6526-1.5977-0.2214-0.57691 0.21514-2.2434 0.97014-3.7034 1.592-3.0785 1.4877-3.2672-2.2712-4.115l-5.39-1.77-20 30-19.532 39.181-0.46774 20.091 10.762-1.6678 8.9677 2.395 40.271-40z"/>
     <path id="path5883-7-0-5-0-2-2-8-9-4-0-2-6-8-8-8-4-94-2-1-7-1-4-5-1-7-5" d="m550.06 962.3 9.8967-9.8984-0.3353-0.57728c-0.18442-0.31751-5.651-9.8836-12.148-21.258-7.2137-12.629-11.911-20.645-12.064-20.589-0.42679 0.15614-0.73516-0.18472-1.2784-1.413-0.28761-0.65034-0.76295-1.3397-1.0563-1.5319-1.1131-0.72935-3.2833 0.0656-7.3452 2.6906-3.0028 1.9406-4.6341 2.8087-6.9019 3.6731-1.392 0.53054-3.116 1.4688-5.4793 2.9819-4.1137 2.6338-4.9702 3.0129-9.0438 4.0023-1.7199 0.41775-5.6195 1.459-8.6658 2.3138-3.0463 0.85485-8.0652 2.1597-11.153 2.8996-3.088 0.73995-7.1624 1.8179-9.0543 2.3954-1.8919 0.57749-6.1134 1.8103-9.3812 2.7396-7.1908 2.0449-9.2513 2.9414-11.165 4.8579-0.70066 0.70159-1.7095 2.0205-2.2418 2.931l-0.9679 1.6554 44.034 16.013c24.219 8.8069 34.625 12.7 34.741 12.7 0.11537 0 14.167-1.142 19.61-6.5861z"/>
     <path id="path5885-6-8-0-9-7-1-6-8-0-6-9-3-7-6-6-1-4-7-3-8-8-9-5-8-6-1" d="m370.11 972.27 9.8562-9.8643-6.5299-10.618c-3.5914-5.8399-8.8205-14.35-11.62-18.911-3.0151-4.9125-5.1912-8.2545-5.3379-8.1982-0.13628 0.0523-0.51063-0.17928-0.83191-0.51461-0.68049-0.71027-1.6045-0.80418-2.6533-0.26966-0.36693 0.18701-1.6661 1.0747-2.887 1.9728-2.5326 1.8628-3.57 2.4498-4.6342 2.6225-1.0037 0.16288-1.8723-0.23069-2.7359-1.2395-0.70605-0.82487-0.72377-0.83165-1.7994-0.68896-3.2351 0.42915-19.146 4.6761-24.78 6.6145-3.9285 1.3515-9.3696 3.133-15.83 5.1829-4.6284 1.4687-6.8279 2.3991-11.077 4.6859-3.8352 2.0639-6.1504 3.6506-8.4056 5.7604l-1.7955 1.6799v1.1849 1.1849l40.287 14.644c22.158 8.0544 31.846 11.718 32.02 11.716 0.17362-0.002 13.334-1.5191 18.755-6.9444v-0.00001z"/>
    </g>
    <g stroke-linejoin="round" stroke-linecap="round" stroke-width="5.6898">
     <g id="g31" stroke="#000" fill="none">
      <path id="path5887-1-9-7-7-6-6-0-0-6-0-8-0-0-0-1-6-6-8-8-8-9-5-2-2-5-8" d="m170 762.36c20 0 60 32.065 60 32.065v87.935l-60-120z"/>
      <path id="path5891-2-8-7-7-4-5-4-4-8-0-2-8-9-3-4-6-9-8-7-2-8-6-6-1-1-1" d="m280 552.36-73.75-76.25"/>
      <path id="path5893-3-2-8-2-2-7-8-7-9-5-7-8-1-0-2-3-85-5-4-9-4-4-8-1-3-0" d="m430 932.36-60.369 7.5462"/>
      <path id="path5895-2-0-3-6-3-6-65-5-8-6-8-2-5-0-5-3-66-9-2-1-1-82-9-9-9-8" d="m330.14 562.29-29.498 49.163c0.29015 55.508-1.2543 17.429-0.50242 70.837v150c41.011 78.469 53.333 88.444 80 130-9.4735 16.614-22.116 21.296-41.275 12.228l-88.725-32.228-20-20v-290l50-80"/>
     </g>
     <path id="path5897-2-5-6-0-2-1-0-5-4-7-5-3-8-8-8-5-0-7-7-3-4-1-2-7-9-1" d="m430 392.36c0 16.586 14.592 20 20 20 5.4084 0 20-3.4136 20-20s-14.592-20-20-20c-5.4084 0-20 3.4136-20 20z" fill-rule="evenodd" stroke="#fff" fill="#fff"/>
     <g id="g38" stroke="#000" fill="none">
      <path id="path5899-1-5-4-1-2-8-9-5-1-3-8-0-6-7-6-5-7-1-7-5-3-6-9-6-5-5" d="m420 452.36-20 20-20-20"/>
      <path id="path5901-6-2-4-6-1-9-0-0-4-8-3-6-3-6-2-3-2-3-9-9-9-8-5-2-9-1" d="m400 472.36v20"/>
      <path id="path5903-8-7-1-5-6-2-0-9-3-4-9-5-9-3-6-2-7-4-3-8-8-3-9-9-2-5" d="m330 332.36-30 50-110 110h-20v-20l80-140 100-30 30 10h30"/>
      <path id="path5905-5-6-9-7-8-7-6-2-9-9-4-0-4-5-5-8-26-7-1-4-8-1-4-5-6-5" d="m380 312.36h40l30-10 60 30 70 140v20h-20l-17.976-9.7764"/>
     </g>
     <path id="path5907-7-7-5-5-5-9-1-8-8-2-4-9-5-6-3-2-4-1-9-0-0-4-5-2-5-3" d="m330 392.36c0 16.586 14.592 20 20 20 5.4084 0 20-3.4136 20-20s-14.592-20-20-20c-5.4084 0-20 3.4136-20 20z" fill-rule="evenodd" stroke="#fff" fill="#fff"/>
    </g>
   </g>
  </g>
 </g>
 <path id="path5907-7-7-5-5-5-7-3-6-5-8-7-8-2-2-94-4-6-3-1-5-3-7-9-8-3-4-8" fill-rule="evenodd" d="m59.04 31.13c0 5.1282 4.5115 6.1837 6.1836 6.1837 1.6722 0 6.1837-1.0554 6.1837-6.1837 0-5.1282-4.5115-6.1836-6.1837-6.1836-1.6721 0-6.1836 1.0554-6.1836 6.1836z"/>
 <path id="path5907-7-7-5-5-5-7-9-4-0-0-7-7-5-8-3-8-6-1-21-2-0-6-8-2-8-9-4-4" fill-rule="evenodd" d="m92.64 31.13c0 5.1282 4.5115 6.1837 6.1837 6.1837s6.1836-1.0554 6.1836-6.1837c0-5.1282-4.5114-6.1836-6.1836-6.1836s-6.1837 1.0554-6.1837 6.1836z"/>
 <g id="g3459-1-3-9-1-4-5-4-7-4-6-2-9-3-1-8-63-7-2-1-3-0-0-1-4-1" stroke-width="1.3883" transform="matrix(1.3044 -.43236 .43236 1.3044 -404.56 -1024.5)">
  <g id="g72663-6-9-4-9-8-6-8-5-8-5-8-7-1-8-2-0" stroke-width="1.3883" transform="matrix(-.80774 -.58954 .58954 -.80774 -450.62 1621.7)">
   <path id="path5895-2-0-3-6-1-7-8-1-3-7-1-4-4-8-5-0-4-8-76-2-2-3-3-6-4-3-0-3-1-7-0" fill="#ccc" d="m33.641 875.38s23.186 14.892 28.232 18.509c4.9779 3.5681 0.62828 5.4593 0.62828 5.4593s-0.51981 4.4698-5.1896 2.9845c-4.7591-1.5137-23.412-6.577-23.412-6.577"/>
   <path id="path5881-2-2-3-2-8-9-2-4-7-0-20-0-3-7-7-4-5-45-1-1-2-4-0-2-7-6-2-9-9-0" fill="#1a1a1a" d="m62.726 899.4c2.0081-3.0143 3.742-3.5616-4.0678-8.0245-3.5662-2.3756-6.484-4.3344-6.484-4.3529s-0.3319 0.30095-0.73756 0.70987l-0.73756 0.74349v1.2191 1.2191l-1.2208 1.22-1.2208 1.22v1.2216 1.2216l-1.2223 1.2204-1.2223 1.2204 0.0142 0.32896 0.0142 0.32895s5.1029 1.3205 7.2327 2.0664c10.66 3.7333 7.6652 1.4197 9.6519-1.5624z"/>
   <path id="path5895-2-0-3-6-1-2-3-4-7-3-9-5-8-9-2-8-1-86-1-4-8-4-2-0-1-0-2-5-2-9" stroke-linejoin="round" d="m34.931 876.7s22.061 13.718 27.107 17.335c4.9779 3.5681 0.62828 5.4593 0.62828 5.4593s-0.51981 4.4698-5.1896 2.9845c-4.7591-1.5137-23.664-7.2977-23.664-7.2977" stroke="#000" stroke-linecap="round" stroke-width="1.3883" fill="none"/>
  </g>
 </g>
 <g id="g3459-1-3-9-1-4-5-4-7-4-6-2-9-3-1-8-6-6-5-4-9-0-7-2-3-3-3" stroke-width="1.3883" transform="matrix(-.18995 -1.361 1.361 -.18995 -1078.6 335.77)">
  <g id="g72663-6-9-4-9-8-6-2-0-5-8-7-7-0-7-2-7-6" stroke-width="1.3883" transform="matrix(.82382 .56685 -.56685 .82382 513.93 130.31)">
   <path id="path5895-2-0-3-6-1-2-3-4-7-3-9-5-8-9-2-8-1-86-1-4-5-1-1-6-3-3-5-0-5-3-4" stroke-linejoin="round" d="m-35.573 905.55s2.5389 21.851 3.0963 26.063c0.27317 2.0547 6.7521 4.4612 6.7521 4.4612l21.795-32.718 47.205-22.376 8.3881-8.2895 29.512 9.9027 15.264-34.923" stroke="#000" stroke-linecap="round" stroke-width="1.3883" fill="none"/>
  </g>
 </g>
 <ellipse id="path5914" rx="5.5558" ry="5.3033" stroke="#000" cy="68.77" cx="82.54" stroke-width="2" fill="#800000"/>
</svg>
