<?xml version="1.0" encoding="UTF-8" standalone="no"?>
<svg id="Layer_1" xmlns:rdf="http://www.w3.org/1999/02/22-rdf-syntax-ns#" xmlns="http://www.w3.org/2000/svg" enable-background="new 0 0 792 612" xml:space="preserve" height="149.69" viewBox="0 0 576.89502 149.692" width="576.9" version="1.1" y="0px" x="0px" xmlns:cc="http://creativecommons.org/ns#" xmlns:dc="http://purl.org/dc/elements/1.1/"><g id="g3" fill="#3d95ce" transform="translate(-107.55 -231)"><path id="path5" d="m202.38 251c3.895 6.433 5.651 13.059 5.651 21.429 0 26.696-22.789 61.376-41.285 85.728h-42.246l-16.943-101.31 36.991-3.512 8.958 72.09c8.37-13.636 18.699-35.065 18.699-49.675 0-7.997-1.37-13.444-3.511-17.929l33.686-6.819z"/><path id="path7" d="m250.32 295.61c6.807 0 23.944-3.114 23.944-12.854 0-4.677-3.307-7.01-7.204-7.01-6.818 0-15.765 8.176-16.74 19.864zm-0.78 19.29c0 11.893 6.613 16.559 15.38 16.559 9.547 0 18.688-2.333 30.569-8.371l-4.475 30.388c-8.371 4.09-21.417 6.819-34.08 6.819-32.121 0-43.617-19.48-43.617-43.833 0-31.564 18.7-65.079 57.253-65.079 21.226 0 33.095 11.892 33.095 28.451 0.002 26.695-34.26 34.873-54.125 35.066z"/><path id="path9" d="m410.41 274.77c0 3.896-0.591 9.547-1.179 13.24l-11.1 70.142h-36.019l10.125-64.298c0.192-1.744 0.782-5.255 0.782-7.203 0-4.677-2.922-5.844-6.435-5.844-4.666 0-9.343 2.141-12.458 3.704l-11.484 73.642h-36.222l16.548-105.02h31.35l0.397 8.382c7.396-4.87 17.135-10.137 30.953-10.137 18.307-0.002 24.742 9.353 24.742 23.387z"/><path id="path11" d="m517.34 262.88c10.316-7.396 20.057-11.496 33.488-11.496 18.495 0 24.928 9.355 24.928 23.389 0 3.896-0.589 9.547-1.177 13.24l-11.087 70.142h-36.029l10.318-65.657c0.19-1.755 0.589-3.896 0.589-5.254 0-5.266-2.923-6.434-6.435-6.434-4.474 0-8.946 1.948-12.266 3.704l-11.482 73.642h-36.02l10.318-65.657c0.19-1.755 0.577-3.896 0.577-5.254 0-5.266-2.924-6.434-6.424-6.434-4.676 0-9.343 2.141-12.458 3.704l-11.493 73.642h-36.21l16.546-105.02h30.967l0.973 8.767c7.204-5.254 16.935-10.521 29.98-10.521 11.295-0.004 18.69 4.867 22.397 11.492z"/><path id="path13" d="m647.44 293.47c0-8.573-2.144-14.418-8.564-14.418-14.215 0-17.134 25.131-17.134 37.987 0 9.753 2.729 15.789 9.147 15.789 13.436 0 16.551-26.503 16.551-39.358zm-62.303 22.017c0-33.117 17.52-64.105 57.83-64.105 30.374 0 41.477 17.929 41.477 42.676 0 32.733-17.331 66.631-58.613 66.631-30.57 0-40.694-20.07-40.694-45.202z"/></g></svg>
