<?xml version="1.0" standalone="no"?>
<!DOCTYPE svg PUBLIC "-//W3C//DTD SVG 20010904//EN"
 "http://www.w3.org/TR/2001/REC-SVG-20010904/DTD/svg10.dtd">
<svg version="1.0" xmlns="http://www.w3.org/2000/svg"
 width="640.000000pt" height="640.000000pt" viewBox="0 0 640.000000 640.000000"
 preserveAspectRatio="xMidYMid meet">
<metadata>
Created by potrace 1.11, written by Peter Selinger 2001-2013
</metadata>
<g transform="translate(0.000000,640.000000) scale(0.100000,-0.100000)"
fill="#000000" stroke="none">
<path d="M1462 6059 c-172 -16 -272 -45 -447 -128 -397 -189 -672 -461 -864
-855 -125 -255 -144 -357 -145 -751 -1 -177 4 -319 12 -385 69 -544 286 -989
691 -1412 268 -281 552 -519 1251 -1048 716 -542 1024 -829 1178 -1096 20 -35
39 -64 42 -64 4 0 17 19 30 43 28 52 388 412 604 606 317 284 521 449 981 792
630 471 998 824 1238 1189 79 121 200 362 251 501 37 101 76 278 98 439 19
143 16 575 -5 730 -19 137 -54 291 -88 391 -83 244 -305 537 -539 713 -286
215 -606 328 -970 343 -448 17 -870 -141 -1175 -442 -152 -150 -227 -260 -340
-501 -41 -86 -76 -158 -78 -160 -2 -2 -16 41 -30 97 -52 197 -150 351 -352
555 -144 145 -263 230 -451 326 -135 70 -245 103 -389 117 -122 12 -377 12
-503 0z"/>
</g>
</svg>
